<svg xmlns="http://www.w3.org/2000/svg" viewBox="0 0 1837 356">
  <path fill="#5032FC" d="M104.2,354.9C91.8,354.2 90.6,354.0 86.9,351.4C84.7,349.9 82.7,348.4 82.5,348.1C82.3,347.8 83.0,334.0 84.1,317.5C85.1,301.0 86.0,285.5 86.0,283.1L86.0,278.7L79.4,279.3C75.7,279.7 72.6,280.1 72.5,280.2C72.4,280.4 68.6,292.4 64.0,307.0C59.5,321.6 55.5,334.1 55.1,334.7C54.6,335.6 51.5,334.0 44.6,329.2L34.8,322.5L18.1,299.5L1.3,276.5L0.7,255.5L-0.0,234.5L5.2,208.8C8.1,194.6 10.7,183.0 11.0,183.0C11.3,183.0 13.3,186.9 15.4,191.7C18.4,198.4 19.6,203.1 21.0,212.8C22.0,219.6 23.0,225.4 23.3,225.6C23.5,225.8 24.9,221.8 26.4,216.8L29.1,207.5L26.2,192.0C24.5,183.5 22.4,170.7 21.5,163.5L19.8,150.5L24.8,130.5C28.3,116.6 30.1,107.4 30.6,100.2C31.8,82.1 31.0,82.4 42.0,95.8C47.3,102.2 55.8,114.5 61.0,123.0L70.5,138.5L71.3,122.0C72.1,108.1 71.9,102.2 70.1,85.0L68.0,64.5L72.1,52.2L76.2,39.8L92.3,20.8C101.2,10.3 108.6,2.2 108.8,2.9C109.0,3.5 108.4,14.4 107.5,27.1L105.9,50.1L117.3,64.8C125.9,76.0 130.6,83.3 137.0,95.5L145.3,111.5L146.1,124.5C146.5,131.7 146.9,139.1 147.0,141.0L147.1,144.5L149.6,141.5C157.6,132.0 156.8,135.5 157.9,103.7L158.8,75.1L171.6,61.5C178.6,54.1 184.7,48.0 185.0,48.0C185.3,48.0 186.6,58.2 187.9,70.7L190.2,93.5L200.7,112.0C210.6,129.5 211.9,132.4 223.4,164.5L235.7,198.5L237.4,230.5L239.1,262.5L224.8,290.5L210.5,318.5L183.2,336.8L155.9,355.2L156.6,333.3C156.9,321.3 157.5,305.2 157.9,297.6L158.5,283.7L168.4,281.1L178.3,278.5L190.2,260.2L202.1,242.0L200.1,231.9C199.1,226.4 198.0,221.7 197.8,221.4C197.0,220.7 174.9,216.8 174.3,217.3C174.0,217.6 175.2,219.8 176.8,222.2C179.6,226.1 180.0,227.4 180.5,236.5L181.1,246.5L178.4,243.3L175.8,240.0L160.1,250.7L144.5,261.3L136.1,273.3L127.8,285.3L123.1,320.1C120.6,339.2 118.3,355.0 118.0,355.2C117.7,355.4 111.5,355.2 104.2,354.9ZM82.9,256.9C92.0,250.5 93.0,249.5 93.0,246.6C93.0,243.3 87.3,228.0 86.0,228.0C85.6,228.0 84.1,228.9 82.6,230.1L80.0,232.1L80.1,229.3C80.1,227.8 80.5,224.6 80.8,222.3L81.5,218.1L93.7,225.2L106.0,232.3L105.4,240.9L104.8,249.5L108.3,253.5L111.8,257.5L115.7,253.1C120.5,247.5 120.9,246.6 121.1,238.3C121.2,232.2 120.9,230.7 117.5,224.0C114.4,217.7 112.7,215.7 107.3,211.7C102.1,207.7 101.1,206.6 102.0,205.4C102.7,204.7 103.7,204.3 104.4,204.7C105.0,205.1 110.1,208.2 115.6,211.7L125.7,218.0L129.4,227.6C131.4,232.9 133.0,238.1 133.0,239.1C133.0,242.3 134.5,241.2 136.9,236.2C138.9,232.3 139.2,230.1 139.1,222.6L138.9,213.8L130.8,203.1C126.3,197.3 122.2,191.9 121.6,191.2C120.5,189.7 120.6,189.7 136.1,196.5L144.8,200.2L148.0,212.6C149.8,219.4 151.5,225.0 151.7,225.0C152.0,225.0 153.5,224.1 155.1,222.9L158.0,220.9L158.0,209.6L158.0,198.4L151.0,190.2C146.6,184.9 144.3,181.4 144.7,180.4C145.4,178.4 146.3,178.8 156.7,185.8L165.5,191.7L168.0,201.4C169.3,206.7 170.7,211.6 171.1,212.2C171.9,213.5 184.0,211.6 185.0,209.9C186.1,208.2 187.2,186.7 186.2,186.1C185.8,185.8 178.1,179.5 169.1,172.1C154.1,159.8 152.3,158.6 145.2,156.4C141.0,155.1 137.0,154.0 136.5,154.0C135.9,154.0 133.4,155.7 130.9,157.8C127.6,160.5 121.4,163.5 109.7,168.0L93.1,174.4L90.5,181.6L87.9,188.8L78.7,192.6C73.6,194.7 69.3,196.8 68.9,197.2C68.6,197.6 67.4,205.5 66.1,214.7L63.8,231.5L67.0,244.0C71.6,262.3 72.0,264.0 72.5,264.0C72.7,264.0 77.4,260.8 82.9,256.9Z"/>
  <path fill="#FAFBFC" d="M363.1,321.5C344.5,316.3 333.1,301.5 327.6,275.4C325.6,265.8 311.5,159.1 309.6,139.5C308.1,123.5 307.5,108.4 307.8,93.8L308.0,86.0L330.4,86.0L352.8,86.0L353.4,90.8C353.8,93.4 357.6,133.7 362.0,180.4C366.5,227.0 370.5,267.4 371.1,270.2C371.7,272.9 373.2,276.3 374.5,277.8C376.5,280.2 377.6,280.5 382.8,280.5C390.0,280.5 392.2,278.9 394.5,272.2C395.5,269.0 397.8,246.2 401.5,200.5C407.2,130.2 408.1,121.3 410.7,112.7C412.9,105.1 417.8,96.4 421.9,92.8C430.5,85.3 446.0,81.2 461.2,82.4C485.8,84.4 498.1,96.2 502.5,121.8C503.3,126.6 506.5,160.8 509.5,197.9C512.5,235.0 515.3,266.5 515.6,267.9C517.5,277.0 521.5,281.0 528.8,281.0C534.2,281.0 537.6,278.1 539.5,271.7C540.6,267.9 558.0,94.7 558.0,87.1C558.0,86.3 564.7,86.0 580.4,86.0L602.8,86.0L603.6,93.7C604.4,102.8 603.6,122.6 601.4,143.0C598.3,173.5 584.8,270.6 582.4,279.9C576.4,303.6 565.3,316.8 547.5,321.5C540.5,323.3 522.2,323.5 513.4,321.9C496.4,318.8 485.8,307.7 481.0,288.2C478.1,276.2 477.3,267.9 472.0,199.7C469.2,164.5 466.6,134.1 466.1,131.9C464.2,123.6 459.7,120.0 453.3,121.6C448.7,122.8 446.3,126.1 445.0,133.0C444.5,136.0 441.8,167.5 439.0,203.0C436.2,238.5 433.3,271.8 432.4,277.0C428.5,302.2 419.7,315.5 403.7,320.6C396.3,323.0 370.5,323.5 363.1,321.5ZM666.4,318.6C655.6,316.0 647.9,309.3 643.7,299.0L641.5,293.5L641.2,189.8L641.0,86.0L728.5,86.0L816.0,86.0L816.0,107.0L816.0,128.0L754.0,128.0L692.0,128.0L692.0,153.5L692.0,179.0L747.0,179.0L802.0,179.0L802.0,200.0L802.0,221.0L747.0,221.0L692.0,221.0L692.0,249.0L692.0,277.0L754.0,277.0L816.0,277.0L816.0,298.5L816.0,320.0L743.8,319.9C689.9,319.9 670.2,319.5 666.4,318.6ZM878.4,319.0C867.7,316.9 859.0,309.5 854.8,299.1L852.5,293.5L852.2,189.8L851.9,86.0L877.5,86.0L903.0,86.0L903.0,181.5L903.0,277.0L955.5,277.0L1008.0,277.0L1008.0,298.5L1008.0,320.0L945.2,319.9C910.7,319.8 880.6,319.4 878.4,319.0ZM1062.2,318.6C1051.4,315.9 1042.8,308.1 1039.3,297.7C1037.7,292.9 1037.5,284.6 1037.2,189.2L1036.9,86.0L1062.5,86.0L1088.0,86.0L1088.0,181.5L1088.0,277.0L1140.5,277.0L1193.0,277.0L1193.0,298.5L1193.0,320.0L1130.2,319.9C1083.1,319.9 1066.2,319.5 1062.2,318.6ZM1247.1,318.4C1236.1,315.4 1228.3,307.9 1225.0,297.2C1223.1,291.0 1223.0,287.9 1223.0,188.4L1223.0,86.0L1289.1,86.0C1343.8,86.0 1357.1,86.3 1365.7,87.6C1400.6,92.7 1416.0,109.5 1416.0,142.5C1416.0,168.9 1402.8,183.0 1374.7,186.5C1370.2,187.1 1369.9,187.3 1370.2,189.8C1370.5,192.3 1370.9,192.5 1379.0,193.7C1401.1,197.1 1415.0,210.5 1419.6,232.9C1422.0,245.0 1421.1,266.3 1417.8,277.7C1411.6,298.5 1397.1,311.5 1373.3,317.2C1364.9,319.2 1361.7,319.3 1308.5,319.6C1261.3,319.9 1251.7,319.7 1247.1,318.4ZM1484.4,318.6C1473.6,316.0 1465.9,309.3 1461.7,299.0L1459.5,293.5L1459.2,189.8L1459.0,86.0L1546.5,86.0L1634.0,86.0L1634.0,107.0L1634.0,128.0L1572.0,128.0L1510.0,128.0L1510.0,153.5L1510.0,179.0L1565.0,179.0L1620.0,179.0L1620.0,200.0L1620.0,221.0L1565.0,221.0L1510.0,221.0L1510.0,249.0L1510.0,277.0L1572.0,277.0L1634.0,277.0L1634.0,298.5L1634.0,320.0L1561.8,319.9C1507.9,319.9 1488.2,319.5 1484.4,318.6ZM1720.0,224.0L1720.0,128.0L1687.0,128.0L1654.0,128.0L1654.0,107.0L1654.0,86.0L1745.0,86.0L1836.0,86.0L1836.0,107.0L1836.0,128.0L1803.5,128.0L1771.0,128.0L1771.0,224.0L1771.0,320.0L1745.5,320.0L1720.0,320.0L1720.0,224.0ZM1356.1,282.4C1365.6,278.0 1368.4,269.4 1367.8,246.6C1367.4,229.7 1365.9,224.7 1360.2,219.8C1355.1,215.5 1349.7,215.0 1310.0,215.0L1273.0,215.0L1273.0,250.1L1273.0,285.1L1312.2,284.8C1349.8,284.5 1351.7,284.4 1356.1,282.4ZM1354.0,178.0C1359.7,174.9 1361.9,170.4 1363.1,160.2C1364.9,145.1 1362.2,130.0 1357.0,125.6C1351.3,120.9 1348.1,120.5 1309.5,120.5L1273.5,120.5L1273.2,150.8L1273.0,181.1L1311.2,180.8L1349.5,180.5L1354.0,178.0Z"/>
</svg>
