<?xml version="1.0" encoding="UTF-8"?>
<svg id="Layer_2" data-name="Layer 2" xmlns="http://www.w3.org/2000/svg" viewBox="0 0 419.02 84.9">
  <defs>
    <style>
      .cls-1 {
        fill: #fafbfc;
      }
    </style>
  </defs>
  <g id="Camada_5" data-name="Camada 5">
    <g>
      <path class="cls-1" d="M56.29,47.11l-5.86-16.1-4.92-8.65-1.2-11.18-6.39,6.52-.4,13.84-2.4,2.93-.4-7.85-3.99-7.72-5.46-7.05.8-11.84-7.85,9.32-2,5.99.93,9.32-.27,8.52-4.66-7.59-4.66-5.72-.53,6.52-2.4,9.58.8,5.72,1.46,7.99-1.46,4.66-.93-6.52-2-4.39-2.53,12.24.13,10.11,8.12,11.18,4.79,3.33,4.23-13.52,3.34-.13-1,16.5,2.13,1.46,6.52.33,2.25-16.85,3.99-5.74,7.49-5.09,1.3,1.55-.25-4.64-1.75-2.58,6.09,1.16.93,5.06-5.72,8.78-4.79,1.2-.53,17.03,13.04-8.78,6.92-13.57-.93-15.3ZM44.32,50.31l-3.43.54-1.4-5.16-4.69-3.14-.3.82,3.29,3.89v5.24l-1.55,1.5-1.7-6.24-5.69-2.5,4.29,5.64.2,4.34-1.4,2.55-.4-1.7-1.55-4.09-5.24-3.29-.7.55,3.09,2.35,1.9,3.64-.3,3.84-2.1,2.45-1.55-1.9.1-4.24-5.84-3.39-.35,3.29,1.6-1.15,1.5,3.69.08,1.78-5.04,3.55-1.99-8.07,1.2-8.25,4.52-1.86,1.33-3.46,8.12-3.19,2.13-1.86,4.13,1.33,8.12,6.65-.4,5.86Z"/>
      <g>
        <path class="cls-1" d="M75.1,46.39c0-23.27,11.22-29.88,29.96-29.88,6.36,0,13.56.59,18.67,2.51v7.95h-19.08c-14.31,0-16.32,1.51-16.32,19.59s2.01,20.09,17.16,20.09h13.06v-1.42c-4.35-.25-6.19-1.34-6.19-6.7v-13.48h12.55v28.63c-5.94,2.51-12.14,3.1-19.84,3.1-18.75,0-29.96-7.11-29.96-30.38Z"/>
        <path class="cls-1" d="M148.75,53.34c-6.28-.42-8.2-4.77-9.96-8.7l-7.2-14.15c-2.09-4.27-2.85-9.29-2.01-13.14h10.46l8.87,22.18c2.01,3.85,2.59,4.6,6.19,4.6s4.1-.67,6.11-4.6l8.96-22.18h10.38c.75,3.68.08,8.96-1.93,13.22l-7.28,14.06c-1.92,4.02-3.26,8.2-9.96,8.7v22.6h-12.64v-22.6Z"/>
        <path class="cls-1" d="M187.17,53l1-22.35c.42-9.37,4.18-14.15,13.98-14.15,8.12,0,11.72,4.27,12.81,14.48l2.85,26.78c.25,2.34.67,3.6,2.59,3.6s2.34-1.26,2.59-3.6l2.85-26.78c1.09-10.21,4.69-14.48,13.48-14.48s12.89,4.77,13.31,14.15l1,22.35c.5,10.55.5,16.57-.92,22.93h-10.04l-1.51-43.02c-.17-4.52-.59-5.94-2.93-5.94s-2.93,1.42-3.35,5.11l-2.76,26.53c-.92,9.12-5.02,11.97-11.72,11.97s-10.8-2.85-11.72-11.97l-2.76-26.53c-.42-3.68-1-5.11-3.35-5.11s-2.76,1.42-2.93,5.94l-1.51,43.02h-10.04c-1.42-6.36-1.42-12.39-.92-22.93Z"/>
        <path class="cls-1" d="M265.6,66.23V17.35h28.54c13.48,0,19.84,3.6,19.84,14.4,0,8.04-5.69,10.63-11.47,10.88v1.51c7.37.42,12.72,4.1,12.72,14.56,0,12.39-6.86,17.24-19.59,17.24h-20.59c-6.11,0-9.46-3.43-9.46-9.71ZM294.14,41.2c5.86,0,6.7-1.84,6.7-7.45s-1-7.7-6.7-7.7h-15.9v15.15h15.9ZM294.89,67.15c5.78,0,7.11-1.84,7.11-8.62s-1.09-8.87-7.11-8.87h-16.66v17.49h16.66Z"/>
        <path class="cls-1" d="M324.69,66.23V17.35h43.69v10.63h-31.05v12.72h27.62v10.38h-27.62v14.15h31.05v10.71h-34.23c-6.03,0-9.46-3.43-9.46-9.71Z"/>
        <path class="cls-1" d="M389.97,27.98h-16.49v-10.63h45.53v10.63h-16.41v47.96h-12.64V27.98Z"/>
      </g>
    </g>
  </g>
</svg>